{
	"asset":{
		"generator":"Khronos glTF Blender I/O v4.0.44",
		"version":"2.0"
	},
	"scene":0,
	"scenes":[
		{
			"name":"Scene",
			"nodes":[
				4
			]
		}
	],
	"nodes":[
		{
			"mesh":0,
			"name":"Sign_Armory_01-convcolonly"
		},
		{
			"mesh":1,
			"name":"Sign_Armory_02-convcolonly"
		},
		{
			"mesh":2,
			"name":"Sign_Armory_03-convcolonly"
		},
		{
			"mesh":3,
			"name":"Sign_Armory_04-convcolonly"
		},
		{
			"children":[
				0,
				1,
				2,
				3
			],
			"mesh":4,
			"name":"Sign_Armory"
		}
	],
	"materials":[
		{
			"doubleSided":true,
			"name":"Collision",
			"pbrMetallicRoughness":{
				"baseColorFactor":[
					0.047601714730262756,
					0.17601831257343292,
					0.8000785112380981,
					1
				],
				"metallicFactor":0,
				"roughnessFactor":0.5
			}
		},
		{
			"doubleSided":true,
			"name":"MI_Trim_Furniture",
			"normalTexture":{
				"index":0
			},
			"pbrMetallicRoughness":{
				"baseColorTexture":{
					"index":1
				},
				"metallicRoughnessTexture":{
					"index":2
				}
			}
		},
		{
			"doubleSided":true,
			"name":"MI_Trim_Metal",
			"normalTexture":{
				"index":3
			},
			"pbrMetallicRoughness":{
				"baseColorTexture":{
					"index":4
				},
				"metallicRoughnessTexture":{
					"index":5
				}
			}
		},
		{
			"doubleSided":true,
			"name":"MI_WoodenSign",
			"pbrMetallicRoughness":{
				"baseColorTexture":{
					"index":6,
					"texCoord":1
				},
				"metallicRoughnessTexture":{
					"index":7,
					"texCoord":1
				}
			}
		}
	],
	"meshes":[
		{
			"name":"Cube.412",
			"primitives":[
				{
					"attributes":{
						"POSITION":0,
						"NORMAL":1,
						"TEXCOORD_0":2
					},
					"indices":3,
					"material":0
				}
			]
		},
		{
			"name":"Cube.413",
			"primitives":[
				{
					"attributes":{
						"POSITION":4,
						"NORMAL":5,
						"TEXCOORD_0":6
					},
					"indices":7,
					"material":0
				}
			]
		},
		{
			"name":"Cube.414",
			"primitives":[
				{
					"attributes":{
						"POSITION":8,
						"NORMAL":9,
						"TEXCOORD_0":10
					},
					"indices":11,
					"material":0
				}
			]
		},
		{
			"name":"Cube.415",
			"primitives":[
				{
					"attributes":{
						"POSITION":12,
						"NORMAL":13,
						"TEXCOORD_0":14
					},
					"indices":15,
					"material":0
				}
			]
		},
		{
			"name":"Cube.240",
			"primitives":[
				{
					"attributes":{
						"POSITION":16,
						"NORMAL":17,
						"TEXCOORD_0":18,
						"TEXCOORD_1":19
					},
					"indices":20,
					"material":1
				},
				{
					"attributes":{
						"POSITION":21,
						"NORMAL":22,
						"TEXCOORD_0":23,
						"TEXCOORD_1":24
					},
					"indices":25,
					"material":2
				},
				{
					"attributes":{
						"POSITION":26,
						"NORMAL":27,
						"TEXCOORD_0":28,
						"TEXCOORD_1":29
					},
					"indices":30,
					"material":3
				}
			]
		}
	],
	"textures":[
		{
			"sampler":0,
			"source":0
		},
		{
			"sampler":0,
			"source":1
		},
		{
			"sampler":0,
			"source":2
		},
		{
			"sampler":0,
			"source":3
		},
		{
			"sampler":0,
			"source":4
		},
		{
			"sampler":0,
			"source":5
		},
		{
			"sampler":0,
			"source":6
		},
		{
			"sampler":0,
			"source":2
		}
	],
	"images":[
		{
			"mimeType":"image/png",
			"name":"T_Trim_Furniture_Normal",
			"uri":"T_Trim_Furniture_Normal.png"
		},
		{
			"mimeType":"image/png",
			"name":"T_Trim_Furniture_BaseColor",
			"uri":"T_Trim_Furniture_BaseColor.png"
		},
		{
			"mimeType":"image/png",
			"name":"T_Trim_Furniture_ORM",
			"uri":"T_Trim_Furniture_ORM.png"
		},
		{
			"mimeType":"image/png",
			"name":"T_Trim_Metal_Normal",
			"uri":"T_Trim_Metal_Normal.png"
		},
		{
			"mimeType":"image/png",
			"name":"T_Trim_Metal_BaseColor",
			"uri":"T_Trim_Metal_BaseColor.png"
		},
		{
			"mimeType":"image/png",
			"name":"T_Trim_Metal_ORM",
			"uri":"T_Trim_Metal_ORM.png"
		},
		{
			"mimeType":"image/png",
			"name":"T_Trim_Cloth_BaseColor",
			"uri":"T_Trim_Cloth_BaseColor.png"
		}
	],
	"accessors":[
		{
			"bufferView":0,
			"componentType":5126,
			"count":24,
			"max":[
				0.10240143537521362,
				0.6116598844528198,
				0.05494736135005951
			],
			"min":[
				-0.0010573016479611397,
				-0.59156334400177,
				-0.06024846062064171
			],
			"type":"VEC3"
		},
		{
			"bufferView":1,
			"componentType":5126,
			"count":24,
			"type":"VEC3"
		},
		{
			"bufferView":2,
			"componentType":5126,
			"count":24,
			"type":"VEC2"
		},
		{
			"bufferView":3,
			"componentType":5123,
			"count":36,
			"type":"SCALAR"
		},
		{
			"bufferView":4,
			"componentType":5126,
			"count":24,
			"max":[
				1.1332411766052246,
				0.26714083552360535,
				0.03493174910545349
			],
			"min":[
				0.3966682553291321,
				-0.3533463180065155,
				-0.04023289307951927
			],
			"type":"VEC3"
		},
		{
			"bufferView":5,
			"componentType":5126,
			"count":24,
			"type":"VEC3"
		},
		{
			"bufferView":6,
			"componentType":5126,
			"count":24,
			"type":"VEC2"
		},
		{
			"bufferView":7,
			"componentType":5123,
			"count":36,
			"type":"SCALAR"
		},
		{
			"bufferView":8,
			"componentType":5126,
			"count":24,
			"max":[
				1.2091901302337646,
				0.609809160232544,
				0.0584489144384861
			],
			"min":[
				0.0023990869522094727,
				0.5007249116897583,
				-0.06374991685152054
			],
			"type":"VEC3"
		},
		{
			"bufferView":9,
			"componentType":5126,
			"count":24,
			"type":"VEC3"
		},
		{
			"bufferView":10,
			"componentType":5126,
			"count":24,
			"type":"VEC2"
		},
		{
			"bufferView":11,
			"componentType":5123,
			"count":36,
			"type":"SCALAR"
		},
		{
			"bufferView":12,
			"componentType":5126,
			"count":24,
			"max":[
				0.4993484616279602,
				0.5256178379058838,
				0.050657205283641815
			],
			"min":[
				0.0652245432138443,
				0.11878529191017151,
				-0.05595820024609566
			],
			"type":"VEC3"
		},
		{
			"bufferView":13,
			"componentType":5126,
			"count":24,
			"type":"VEC3"
		},
		{
			"bufferView":14,
			"componentType":5126,
			"count":24,
			"type":"VEC2"
		},
		{
			"bufferView":15,
			"componentType":5123,
			"count":36,
			"type":"SCALAR"
		},
		{
			"bufferView":16,
			"componentType":5126,
			"count":164,
			"max":[
				1.209225058555603,
				0.6079880595207214,
				0.05717833340167999
			],
			"min":[
				-0.0006057529244571924,
				-0.6027193069458008,
				-0.05717838555574417
			],
			"type":"VEC3"
		},
		{
			"bufferView":17,
			"componentType":5126,
			"count":164,
			"type":"VEC3"
		},
		{
			"bufferView":18,
			"componentType":5126,
			"count":164,
			"type":"VEC2"
		},
		{
			"bufferView":19,
			"componentType":5126,
			"count":164,
			"type":"VEC2"
		},
		{
			"bufferView":20,
			"componentType":5123,
			"count":432,
			"type":"SCALAR"
		},
		{
			"bufferView":21,
			"componentType":5126,
			"count":1346,
			"max":[
				1.1440746784210205,
				0.6326305866241455,
				0.0732080265879631
			],
			"min":[
				0.08594444394111633,
				-0.35944992303848267,
				-0.06971960514783859
			],
			"type":"VEC3"
		},
		{
			"bufferView":22,
			"componentType":5126,
			"count":1346,
			"type":"VEC3"
		},
		{
			"bufferView":23,
			"componentType":5126,
			"count":1346,
			"type":"VEC2"
		},
		{
			"bufferView":24,
			"componentType":5126,
			"count":1346,
			"type":"VEC2"
		},
		{
			"bufferView":25,
			"componentType":5123,
			"count":3774,
			"type":"SCALAR"
		},
		{
			"bufferView":26,
			"componentType":5126,
			"count":242,
			"max":[
				1.0942033529281616,
				0.18822088837623596,
				0.023077236488461494
			],
			"min":[
				0.4026120901107788,
				-0.3470039665699005,
				-0.023077301681041718
			],
			"type":"VEC3"
		},
		{
			"bufferView":27,
			"componentType":5126,
			"count":242,
			"type":"VEC3"
		},
		{
			"bufferView":28,
			"componentType":5126,
			"count":242,
			"type":"VEC2"
		},
		{
			"bufferView":29,
			"componentType":5126,
			"count":242,
			"type":"VEC2"
		},
		{
			"bufferView":30,
			"componentType":5123,
			"count":396,
			"type":"SCALAR"
		}
	],
	"bufferViews":[
		{
			"buffer":0,
			"byteLength":288,
			"byteOffset":0,
			"target":34962
		},
		{
			"buffer":0,
			"byteLength":288,
			"byteOffset":288,
			"target":34962
		},
		{
			"buffer":0,
			"byteLength":192,
			"byteOffset":576,
			"target":34962
		},
		{
			"buffer":0,
			"byteLength":72,
			"byteOffset":768,
			"target":34963
		},
		{
			"buffer":0,
			"byteLength":288,
			"byteOffset":840,
			"target":34962
		},
		{
			"buffer":0,
			"byteLength":288,
			"byteOffset":1128,
			"target":34962
		},
		{
			"buffer":0,
			"byteLength":192,
			"byteOffset":1416,
			"target":34962
		},
		{
			"buffer":0,
			"byteLength":72,
			"byteOffset":1608,
			"target":34963
		},
		{
			"buffer":0,
			"byteLength":288,
			"byteOffset":1680,
			"target":34962
		},
		{
			"buffer":0,
			"byteLength":288,
			"byteOffset":1968,
			"target":34962
		},
		{
			"buffer":0,
			"byteLength":192,
			"byteOffset":2256,
			"target":34962
		},
		{
			"buffer":0,
			"byteLength":72,
			"byteOffset":2448,
			"target":34963
		},
		{
			"buffer":0,
			"byteLength":288,
			"byteOffset":2520,
			"target":34962
		},
		{
			"buffer":0,
			"byteLength":288,
			"byteOffset":2808,
			"target":34962
		},
		{
			"buffer":0,
			"byteLength":192,
			"byteOffset":3096,
			"target":34962
		},
		{
			"buffer":0,
			"byteLength":72,
			"byteOffset":3288,
			"target":34963
		},
		{
			"buffer":0,
			"byteLength":1968,
			"byteOffset":3360,
			"target":34962
		},
		{
			"buffer":0,
			"byteLength":1968,
			"byteOffset":5328,
			"target":34962
		},
		{
			"buffer":0,
			"byteLength":1312,
			"byteOffset":7296,
			"target":34962
		},
		{
			"buffer":0,
			"byteLength":1312,
			"byteOffset":8608,
			"target":34962
		},
		{
			"buffer":0,
			"byteLength":864,
			"byteOffset":9920,
			"target":34963
		},
		{
			"buffer":0,
			"byteLength":16152,
			"byteOffset":10784,
			"target":34962
		},
		{
			"buffer":0,
			"byteLength":16152,
			"byteOffset":26936,
			"target":34962
		},
		{
			"buffer":0,
			"byteLength":10768,
			"byteOffset":43088,
			"target":34962
		},
		{
			"buffer":0,
			"byteLength":10768,
			"byteOffset":53856,
			"target":34962
		},
		{
			"buffer":0,
			"byteLength":7548,
			"byteOffset":64624,
			"target":34963
		},
		{
			"buffer":0,
			"byteLength":2904,
			"byteOffset":72172,
			"target":34962
		},
		{
			"buffer":0,
			"byteLength":2904,
			"byteOffset":75076,
			"target":34962
		},
		{
			"buffer":0,
			"byteLength":1936,
			"byteOffset":77980,
			"target":34962
		},
		{
			"buffer":0,
			"byteLength":1936,
			"byteOffset":79916,
			"target":34962
		},
		{
			"buffer":0,
			"byteLength":792,
			"byteOffset":81852,
			"target":34963
		}
	],
	"samplers":[
		{
			"magFilter":9729,
			"minFilter":9987
		}
	],
	"buffers":[
		{
			"byteLength":82644,
			"uri":"Sign_Armory.bin"
		}
	]
}
