<svg xmlns="http://www.w3.org/2000/svg" width="96" height="96" viewBox="0 0 96 96">
  <rect width="96" height="96" rx="14" fill="#1d1d22"/>
  <path d="M45 18H53L50 88H42Z" fill="#744825"/>
  <path d="M49 17C66 13 79 21 78 38 63 37 55 43 51 54 47 43 39 37 24 38 23 21 32 13 49 17Z" fill="#c7ced4" stroke="#eef2f5" stroke-width="3"/>
  <path d="M49 17C32 13 19 21 20 38 35 37 43 43 47 54 51 43 59 37 74 38 75 21 66 13 49 17Z" fill="#aeb8c0" stroke="#eef2f5" stroke-width="3" opacity="0.95"/>
  <path d="M45 20H53L52 36H44Z" fill="#4d3523"/>
</svg>
